 <svg  version="1.0" xmlns="http://www.w3.org/2000/svg"  width="300.000000pt" height="200.000000pt" viewBox="0 0 300.000000 200.000000"  preserveAspectRatio="xMidYMid meet">  <g transform="translate(0.000000,200.000000) scale(0.100000,-0.100000)" fill="#02d3fc" stroke="none"> <path d="M1346 1613 c-144 -33 -301 -145 -375 -268 -76 -125 -110 -282 -91 -422 23 -178 105 -316 250 -422 185 -137 437 -159 650 -57 169 81 313 275 339 459 49 338 -149 629 -487 717 -56 14 -211 11 -286 -7z m279 -28 c117 -25 207 -75 295 -163 196 -197 233 -484 93 -721 -50 -83 -161 -187 -245 -228 -440 -216 -940 155 -854 634 22 128 73 222 170 318 151 150 333 204 541 160z"/> <path d="M1340 1511 c-92 -30 -142 -61 -216 -135 -112 -112 -158 -223 -157 -381 1 -202 113 -377 300 -470 l68 -34 3 35 c2 21 -3 40 -12 50 -19 18 -21 55 -4 72 35 35 102 -14 78 -57 -6 -12 -15 -21 -20 -21 -6 0 -10 -20 -10 -45 0 -38 3 -45 19 -45 11 0 26 -3 35 -6 14 -5 16 6 16 83 l0 89 -50 49 c-34 33 -58 49 -76 50 -34 0 -53 28 -38 53 17 27 57 22 72 -10 7 -15 37 -48 67 -74 l55 -46 0 -99 c0 -96 1 -99 23 -99 22 0 22 1 19 132 -1 76 -8 143 -14 156 -15 30 0 57 32 57 32 0 47 -27 32 -57 -6 -13 -13 -80 -14 -156 -3 -128 -2 -133 17 -130 18 3 20 12 23 108 2 81 7 108 20 123 10 11 15 31 13 48 -6 59 53 82 85 34 15 -23 15 -27 0 -50 -9 -14 -25 -25 -35 -25 -39 0 -51 -31 -51 -133 l0 -96 55 19 c236 81 390 327 355 570 -19 132 -71 232 -171 324 -62 58 -154 108 -229 125 -72 17 -227 12 -290 -8z m90 -20 c0 -22 -37 -72 -58 -77 -27 -7 -113 16 -105 29 6 10 43 26 103 43 56 16 60 16 60 5z m258 -27 c39 -16 40 -27 7 -42 -52 -24 -90 -11 -112 40 -19 42 8 42 105 2z m-132 -13 c9 -43 18 -53 64 -70 45 -17 45 -17 78 8 l33 24 36 -36 37 -36 -19 -38 -19 -39 -50 6 c-28 4 -69 17 -91 31 -34 20 -53 24 -120 24 -67 0 -89 -5 -135 -27 -30 -15 -73 -28 -96 -30 -38 -3 -42 -1 -59 35 l-19 38 37 36 36 36 34 -26 c33 -25 37 -26 64 -12 15 8 36 15 45 15 11 0 20 10 24 28 13 59 12 58 64 58 46 0 51 -2 56 -25z m-378 -86 c-9 -20 -8 -33 7 -66 33 -72 87 -82 194 -33 89 39 164 38 252 -4 36 -18 76 -32 88 -32 39 0 77 27 96 69 15 35 16 45 6 68 l-13 28 24 -20 c39 -33 88 -89 88 -102 0 -6 4 -13 9 -15 4 -1 12 -13 15 -25 6 -18 3 -23 -11 -23 -10 0 -29 -7 -41 -16 -20 -14 -22 -23 -22 -108 0 -123 -4 -128 -103 -128 -42 0 -85 3 -96 7 -33 10 -39 107 -7 127 6 4 30 8 53 8 68 0 98 54 53 95 -35 32 -168 18 -200 -20 -9 -11 -15 -9 -36 12 -24 24 -29 25 -112 19 -48 -3 -94 -5 -102 -5 -8 0 -72 3 -142 5 -72 3 -128 9 -128 15 0 17 50 89 90 129 46 46 54 49 38 15z m122 -210 c0 -23 -3 -25 -50 -25 l-50 0 0 -125 0 -125 -25 0 -25 0 0 125 0 125 -55 0 c-52 0 -55 1 -55 25 l0 25 130 0 130 0 0 -25z m220 0 c0 -23 -3 -24 -72 -27 -70 -3 -73 -4 -73 -28 0 -22 8 -28 64 -47 35 -12 68 -28 73 -35 29 -44 15 -107 -28 -127 -14 -6 -58 -11 -99 -11 -73 0 -75 1 -75 25 0 23 3 24 78 27 l77 3 0 29 c0 28 -4 31 -55 44 -71 17 -95 40 -95 93 0 62 27 79 126 79 77 0 79 -1 79 -25z m240 0 c0 -24 -3 -25 -57 -25 -78 0 -93 -15 -93 -94 0 -90 15 -106 94 -106 59 0 63 -1 61 -22 -1 -21 -8 -23 -58 -26 -67 -4 -119 17 -136 54 -15 33 -14 163 2 194 18 35 53 50 125 50 60 0 62 -1 62 -25z m193 -97 c-3 -115 -5 -124 -27 -147 -19 -18 -39 -25 -80 -29 -55 -4 -56 -4 -56 22 0 23 4 26 36 26 70 0 74 7 74 135 l0 115 28 0 27 0 -2 -122z m-872 42 c33 0 39 -18 39 -127 0 -97 15 -121 70 -113 30 4 39 34 40 133 0 82 3 99 17 104 11 4 21 0 27 -11 37 -62 55 -83 84 -95 42 -19 41 -31 -2 -31 -19 0 -42 -7 -50 -16 -18 -17 -21 -60 -6 -69 16 -10 12 -22 -9 -28 -10 -2 -27 -17 -37 -32 -25 -38 -10 -74 42 -101 l41 -20 -28 -32 c-29 -32 -38 -75 -19 -87 14 -9 12 -25 -2 -25 -20 0 -99 56 -149 105 -51 51 -110 156 -128 228 -13 55 -16 155 -6 210 7 35 8 36 28 22 12 -8 33 -15 48 -15z m449 -14 c0 -24 -18 -28 -50 -11 -16 8 -30 18 -30 20 0 3 18 5 40 5 28 0 40 -4 40 -14z m454 -216 c-22 -80 -69 -160 -133 -225 -52 -52 -172 -122 -190 -110 -6 3 -11 30 -11 58 0 54 20 97 45 97 20 0 45 40 45 73 0 19 -10 39 -31 58 l-31 29 43 2 c24 1 71 2 104 3 70 0 113 16 138 51 21 29 24 40 28 104 3 41 3 39 7 -15 2 -37 -3 -85 -14 -125z m-358 -10 l37 -12 -32 -20 c-31 -20 -31 -20 -57 1 -32 25 -52 26 -81 6 -25 -18 -40 -72 -24 -88 14 -14 14 -37 1 -37 -12 0 -56 43 -98 98 l-34 42 54 0 c68 0 116 14 141 40 19 21 19 21 38 2 10 -11 35 -26 55 -32z"/> <path d="M1645 770 c-4 -7 -3 -16 3 -22 14 -14 45 -2 40 15 -6 16 -34 21 -43 7z"/> <path d="M1340 610 c0 -15 5 -20 18 -18 9 2 17 10 17 18 0 8 -8 16 -17 18 -13 2 -18 -3 -18 -18z"/> </g> </svg> 